# Blender v3.0.0 OBJ File: 'scene.blend'
# www.blender.org
o meshes@2
v -0.202430 0.159017 0.141145
v -0.205736 0.159017 0.139587
v -0.187135 0.159017 0.156447
v -0.189003 0.159017 0.153301
v -0.199285 0.159017 0.143014
v -0.209180 0.159017 0.138348
v -0.234244 0.159017 0.139580
v -0.216348 0.159017 0.136892
v -0.220007 0.159017 0.136704
v -0.223657 0.159017 0.136892
v -0.212728 0.159017 0.137445
v -0.227268 0.159017 0.137445
v -0.230809 0.159017 0.138346
v -0.191169 0.159017 0.150351
v -0.196337 0.159017 0.145181
v -0.185587 0.159017 0.188271
v -0.185577 0.159017 0.159755
v -0.184348 0.159017 0.184828
v -0.184342 0.159017 0.163193
v -0.234275 0.159017 0.208410
v -0.193621 0.159017 0.147633
v -0.183444 0.159017 0.181279
v -0.183441 0.159017 0.166736
v -0.254406 0.159017 0.159722
v -0.237551 0.159017 0.141136
v -0.240695 0.159017 0.143003
v -0.243643 0.159017 0.145168
v -0.250978 0.159017 0.153277
v -0.246360 0.159017 0.147617
v -0.248811 0.159017 0.150331
v -0.252847 0.159017 0.156418
v -0.256550 0.159017 0.166708
v -0.257105 0.159017 0.170326
v -0.256559 0.159017 0.181252
v -0.257295 0.159017 0.173982
v -0.257109 0.159017 0.177636
v -0.255645 0.159017 0.163163
v -0.254424 0.159017 0.188237
v -0.255658 0.159017 0.184797
v -0.182889 0.159017 0.177659
v -0.182889 0.159017 0.170349
v -0.187146 0.159017 0.191577
v -0.202455 0.159017 0.206871
v -0.199307 0.159017 0.205003
v -0.189015 0.159017 0.194721
v -0.196355 0.159017 0.202836
v -0.191183 0.159017 0.197668
v -0.205765 0.159017 0.208428
v -0.209205 0.159017 0.209662
v -0.230836 0.159017 0.209648
v -0.227291 0.159017 0.210553
v -0.212750 0.159017 0.210562
v -0.193635 0.159017 0.200384
v -0.216367 0.159017 0.211113
v -0.223675 0.159017 0.211108
v -0.250997 0.159017 0.194697
v -0.248830 0.159017 0.197648
v -0.240719 0.159017 0.204983
v -0.246377 0.159017 0.200368
v -0.243663 0.159017 0.202818
v -0.252866 0.159017 0.191548
v -0.237578 0.159017 0.206852
v -0.220021 0.159017 0.211298
v -0.182701 0.159017 0.174001
vt 0.262258 0.372875
vt 0.250980 0.396801
vt 0.372982 0.262201
vt 0.350216 0.275720
vt 0.275783 0.350121
vt 0.242020 0.421716
vt 0.250932 0.603083
vt 0.231479 0.473590
vt 0.230125 0.500061
vt 0.231485 0.526470
vt 0.235482 0.447394
vt 0.235482 0.552605
vt 0.242001 0.578223
vt 0.328873 0.291395
vt 0.291462 0.328790
vt 0.603251 0.251002
vt 0.396919 0.250931
vt 0.578339 0.242037
vt 0.421793 0.241996
vt 0.748976 0.603305
vt 0.309205 0.309133
vt 0.552664 0.235494
vt 0.447426 0.235475
vt 0.396678 0.748969
vt 0.262195 0.627006
vt 0.275703 0.649758
vt 0.291365 0.671090
vt 0.350038 0.724163
vt 0.309088 0.690750
vt 0.328727 0.708486
vt 0.372773 0.737688
vt 0.447229 0.764484
vt 0.473406 0.768502
vt 0.552468 0.764546
vt 0.499858 0.769876
vt 0.526300 0.768532
vt 0.421573 0.757936
vt 0.603011 0.749097
vt 0.578119 0.758030
vt 0.526470 0.231486
vt 0.473576 0.231481
vt 0.627173 0.262283
vt 0.737840 0.373059
vt 0.724321 0.350278
vt 0.649923 0.275812
vt 0.708644 0.328921
vt 0.671249 0.291494
vt 0.749107 0.397012
vt 0.758037 0.421904
vt 0.757938 0.578419
vt 0.764484 0.552771
vt 0.764550 0.447554
vt 0.690901 0.309239
vt 0.768534 0.473721
vt 0.768501 0.526604
vt 0.649749 0.724304
vt 0.671107 0.708622
vt 0.724183 0.649931
vt 0.690788 0.690874
vt 0.708515 0.671238
vt 0.626966 0.737826
vt 0.737700 0.627204
vt 0.769875 0.500161
vt 0.500000 0.230124
vn 0.0000 1.0000 -0.0000
s 1
f 1/1/1 2/2/1 3/3/1
f 4/4/1 5/5/1 1/1/1
f 6/6/1 7/7/1 2/2/1
f 8/8/1 9/9/1 10/10/1
f 11/11/1 8/8/1 12/12/1
f 13/13/1 6/6/1 11/11/1
f 5/5/1 14/14/1 15/15/1
f 16/16/1 17/17/1 2/2/1
f 17/17/1 18/18/1 19/19/1
f 20/20/1 2/2/1 7/7/1
f 5/5/1 4/4/1 14/14/1
f 4/4/1 1/1/1 3/3/1
f 2/2/1 17/17/1 3/3/1
f 14/14/1 21/21/1 15/15/1
f 19/19/1 22/22/1 23/23/1
f 13/13/1 11/11/1 12/12/1
f 6/6/1 13/13/1 7/7/1
f 24/24/1 7/7/1 25/25/1
f 26/26/1 27/27/1 28/28/1
f 27/27/1 29/29/1 30/30/1
f 25/25/1 26/26/1 31/31/1
f 10/10/1 12/12/1 8/8/1
f 28/28/1 27/27/1 30/30/1
f 31/31/1 26/26/1 28/28/1
f 25/25/1 31/31/1 24/24/1
f 32/32/1 33/33/1 34/34/1
f 33/33/1 35/35/1 36/36/1
f 20/20/1 7/7/1 24/24/1
f 37/37/1 38/38/1 24/24/1
f 37/37/1 32/32/1 39/39/1
f 40/40/1 41/41/1 23/23/1
f 23/23/1 22/22/1 40/40/1
f 22/22/1 19/19/1 18/18/1
f 17/17/1 16/16/1 18/18/1
f 42/42/1 16/16/1 43/43/1
f 44/44/1 45/45/1 42/42/1
f 20/20/1 16/16/1 2/2/1
f 46/46/1 47/47/1 45/45/1
f 45/45/1 44/44/1 46/46/1
f 44/44/1 42/42/1 43/43/1
f 16/16/1 48/48/1 43/43/1
f 49/49/1 48/48/1 50/50/1
f 51/51/1 52/52/1 49/49/1
f 16/16/1 20/20/1 48/48/1
f 53/53/1 47/47/1 46/46/1
f 54/54/1 52/52/1 55/55/1
f 56/56/1 57/57/1 58/58/1
f 57/57/1 59/59/1 60/60/1
f 61/61/1 56/56/1 62/62/1
f 34/34/1 39/39/1 32/32/1
f 38/38/1 37/37/1 39/39/1
f 20/20/1 38/38/1 61/61/1
f 36/36/1 34/34/1 33/33/1
f 51/51/1 49/49/1 50/50/1
f 52/52/1 51/51/1 55/55/1
f 38/38/1 20/20/1 24/24/1
f 58/58/1 57/57/1 60/60/1
f 62/62/1 56/56/1 58/58/1
f 61/61/1 62/62/1 20/20/1
f 50/50/1 48/48/1 20/20/1
f 54/54/1 55/55/1 63/63/1
f 40/40/1 64/64/1 41/41/1
